<?xml version="1.0" encoding="utf-8" ?><svg xmlns="http://www.w3.org/2000/svg" xmlns:xlink="http://www.w3.org/1999/xlink" width="1024" height="1024" viewBox="0 0 1024 1024"><path fill="#11063B" d="M221.1 0L803.722 0L804.321 0.134648C810.694 1.51289 820.042 2.40139 826.75 3.37494C834.604 4.56746 842.389 6.17864 850.071 8.20159C905.756 23.3089 953.923 58.4046 985.367 106.782C1002.15 132.514 1013.74 161.273 1019.5 191.447C1021.32 200.723 1022 211.72 1024 220.295L1024 798.438C1022.95 803.218 1023.08 809.358 1022.46 814.379C1021.05 825.067 1019.1 835.676 1016.6 846.165C1003.14 901.708 966.663 952.367 919.309 984.099C891.535 1002.8 860.073 1015.33 827.044 1020.84C820.883 1021.87 815.574 1022.34 809.359 1022.77C806.831 1022.94 799.374 1023.39 797.336 1024L221.122 1024C218.991 1023.34 208.871 1022.33 206.154 1022.01C200.6 1021.33 195.072 1020.45 189.579 1019.38C158.23 1013.26 128.492 1000.7 102.239 982.505C54.2466 949.289 20.1358 899.593 6.39395 842.867C4.74062 836.104 3.43959 829.535 2.4882 822.641C1.61713 816.328 1.27184 808.893 0.0874728 802.73L0 802.293L0 223.745C1.85805 216.944 2.44111 202.229 3.86645 194.211C9.44467 161.88 21.8395 131.106 40.2273 103.935C72.443 55.6462 121.5 21.0989 177.82 7.0384C185.246 5.18098 192.772 3.74709 200.36 2.74367C206.466 1.971 214.763 1.31497 220.643 0.0984008L221.1 0Z"/><path fill="#4EF6AD" d="M818.227 593.622C815.792 602.153 813.773 610.549 810.945 618.995C787.261 689.727 737.607 745.824 673.692 783.569C524.733 871.537 333.529 820.098 246.239 671.31C204.833 599.67 193.543 514.527 214.846 434.571C236.306 353.591 288.892 284.37 361.152 241.981C439.06 196.498 521.437 187.161 608.388 209.976C607.574 211.376 608.108 210.825 606.703 211.671C462.278 205.923 333.305 324.765 327.607 469.095C325.07 534.279 348.747 597.764 393.351 645.366C441.259 696.841 507.729 727.068 578.012 729.34C647.502 731.183 714.948 705.72 765.882 658.412C788.374 637.435 801.476 619.527 816.414 593.017L818.227 593.622Z"/><path fill="#4EF6AD" d="M554.388 292.213C573.285 290.614 596.975 299.918 611.432 311.779C629.75 326.808 640.686 349.483 641.567 373.115C641.708 381.783 641.524 390.362 641.838 399.023C642.29 411.528 651.756 410.204 661.726 409.897C687.206 409.111 710.794 410.554 731.507 427.551C748.641 441.611 759.703 461.837 762.242 483.979C764.586 505.953 758.556 529.607 744.4 546.775C729.428 564.934 706.611 575.711 683.152 576.478C673.153 576.806 662.652 576.103 652.69 576.842C650.159 577.061 643.674 578.432 642.918 581.529C639.729 594.594 643.163 609.008 640.941 622.487C638.359 638.145 632.731 651.285 622.757 663.479C607.954 681.578 588.295 692.503 565.12 694.791C564.568 694.917 561.8 695.139 561.151 695.158C538.999 695.801 518.595 688.852 502.129 674.008C484.787 658.374 474.684 637.244 474.198 614.009C473.901 605.5 474.293 596.889 473.997 588.388C473.478 573.471 462.076 576.389 451.466 576.652C426.363 577.276 404.963 572.531 385.686 555.706C368.89 541.018 358.67 520.219 357.308 497.948C355.851 474.896 363.748 453.545 379.052 436.348C393.73 419.757 414.524 409.847 436.656 408.895C445.121 408.482 453.697 409.216 462.172 408.757C472.509 408.197 473.428 405.173 473.916 395.833C474.434 385.914 473.319 375.627 474.494 365.767C478.211 334.585 500.083 307.231 529.817 297.008C538.337 294.078 545.454 292.836 554.388 292.213Z"/><path fill="#11063B" d="M551.984 334.658C561.224 333.659 570.549 335.516 578.702 339.977C598.885 351.184 600.491 368.74 600.445 389.146L600.347 412.979C600.314 424.137 600.131 442.303 614.093 446.247C639.783 453.503 673.43 441.15 697.799 453.841C719.126 464.948 726.216 494.434 713.938 514.855C701.59 534.733 683.827 535.632 663.111 535.547L637.799 535.412C607.704 535.288 600.442 540.51 600.376 571.504C600.303 605.407 607.447 640.73 566.239 651.864C555.127 654.058 544.225 652.058 534.821 645.744C517.703 634.249 515.818 619.793 515.821 600.391C515.824 586.274 517.252 567.371 514.479 553.748C513.308 547.994 510.823 542.478 505.621 539.317C487.406 528.247 442.383 544.523 417.351 527.795C407.826 521.429 401.12 511.691 399.016 500.385C396.971 488.865 399.583 477.005 406.278 467.41C418.942 449.105 435.784 448.115 455.636 448.25L479.686 448.437C491.111 448.496 507.219 449.132 512.758 436.566C515.123 431.201 514.693 423.844 514.664 418.003L514.571 393.74C514.526 378.586 513.759 364.813 522.97 351.8C530.347 341.377 539.744 336.899 551.984 334.658Z"/><path fill="#43D0A1" d="M608.388 209.976C610.583 210.273 611.916 210.309 613.911 211.26L613.613 211.763C611.063 212.3 609.293 211.936 606.703 211.671C608.108 210.825 607.574 211.376 608.388 209.976Z"/><path fill="#43D0A1" d="M816.414 593.017C817.597 590.68 818.864 588.042 820.102 585.762L818.227 593.622L816.414 593.017Z"/></svg>